PathFileType	4	(X/Y/Z)	AB09\squats_1.trc
DataRate	CameraRate	NumFrames	NumMarkers	Units	OrigDataRate	OrigDataStartFrame	OrigNumFrames
200.000000	200.000000	4	35	mm	200.000000	83	332
Frame#	Time	C7			LSHO			STRN			LASI			RASI			LPSI			RPSI			LGTR			RGTR			LTHC			LTHL			LTHR			LKNE			LMKNE			LSHC			LSHL			LSHR			LANK			LMANK			LMT1			LMT5			LCAL			RTHC			RTHL			RTHR			RKNE			RMKNE			RSHC			RSHL			RSHR			RANK			RMANK			RMT1			RMT5			RCAL			
		X1	Y1	Z1	X2	Y2	Z2	X3	Y3	Z3	X4	Y4	Z4	X5	Y5	Z5	X6	Y6	Z6	X7	Y7	Z7	X8	Y8	Z8	X9	Y9	Z9	X10	Y10	Z10	X11	Y11	Z11	X12	Y12	Z12	X13	Y13	Z13	X14	Y14	Z14	X15	Y15	Z15	X16	Y16	Z16	X17	Y17	Z17	X18	Y18	Z18	X19	Y19	Z19	X20	Y20	Z20	X21	Y21	Z21	X22	Y22	Z22	X23	Y23	Z23	X24	Y24	Z24	X25	Y25	Z25	X26	Y26	Z26	X27	Y27	Z27	X28	Y28	Z28	X29	Y29	Z29	X30	Y30	Z30	X31	Y31	Z31	X32	Y32	Z32	X33	Y33	Z33	X34	Y34	Z34	X35	Y35	Z35	

84	20.58	-3517.076030948735	1232.340750491634	2506.946610491079	-3600.682931497365	1175.508080389243	2673.27303351918	-3605.619016418802	935.0241502508596	2513.372786579012	-3356.403523426075	766.4839363344482	2658.062870046519	-3383.688417081944	747.5465189919269	2372.49148073298	-3180.570356703845	807.8729265402453	2566.269386555163	-3187.096070227437	803.2607604832529	2430.421232781059	-3266.425351036276	711.1152613725196	2726.719224220476	-3296.70217838351	712.2262687831038	2287.793283364201	-3477.210430112249	612.4512631761069	2757.708023795429	-3568.950144636219	629.3056349743007	2670.63158288731	-3471.416638842728	456.5875688874999	2688.985991203124	-3622.165705439914	477.7408257761456	2773.613055733167	-3635.029017586587	462.4149976279373	2636.53613714713	-3513.334230095452	406.7983076074807	2759.00380068598	-3637.347088389277	328.0912182807037	2714.573126948184	-3553.645885780401	271.1109109935845	2770.019727425582	-3442.653707553286	106.1203421619063	2740.570050695023	-3484.462861541516	115.1154811325797	2646.725493553996	-3587.061908309394	77.13074097485253	2686.906471263369	-3535.918303632521	54.50629696539467	2787.241060313444	-3362.222509834587	71.48377205434602	2671.622884743394	-3460.238760968991	465.4149117545508	2312.932145019277	-3492.137313272029	586.1015625966696	2243.407999602297	-3559.832281079444	642.222836362336	2314.209267433618	-3600.684587505873	470.7168589469414	2235.087034310318	-3625.032618356815	467.5674017768022	2381.522912878628	-3537.322891894624	285.3319449449912	2229.389489090048	-3508.560870263401	392.2446475865978	2259.144468096723	-3632.819901805527	329.6609661281649	2318.815086646045	-3441.941652136501	105.4747136343169	2279.077899443599	-3485.627114992898	114.761951152899	2375.781617781444	-3603.180676581177	65.27688792397029	2321.053642275362	-3549.650308842488	62.8393097138101	2216.785956087373	-3379.243335452659	70.07003547210516	2360.232428585653	
85	20.585	-3518.002214948237	1226.588642411553	2506.820377401065	-3601.393512407315	1169.809828101352	2672.968364540934	-3605.54988822736	929.0359025555545	2513.408461993617	-3355.218531576169	762.0228084154099	2657.90087173954	-3382.674540192293	743.3525134683277	2372.120807553755	-3179.359759449224	803.2474319296083	2566.012358894724	-3185.953857238365	798.6760407945484	2430.212040431387	-3264.992453450211	707.1959614049014	2726.723814234048	-3295.486258468731	708.4299460130896	2287.457726492538	-3476.488531398883	610.5249456038888	2757.61156164721	-3568.073588682547	628.0743706246188	2670.436245927098	-3472.149274856606	454.7235898286679	2689.206687303637	-3622.715898595199	477.2478697419776	2773.85881163672	-3635.691203649114	461.8242249536165	2636.690934292614	-3513.913706468231	406.5058765050314	2759.149109555988	-3637.92165141698	327.6626914686444	2714.739244755168	-3554.01595714979	270.839454297958	2770.087214882482	-3442.741995466745	106.1071695913255	2740.499762887136	-3484.559567140037	115.1038370766333	2646.710232663268	-3587.097077303906	77.10644906262318	2686.92187008876	-3535.923244076806	54.50062928027868	2787.24794714504	-3362.255617290118	71.52086769421403	2671.577724134319	-3460.934752929478	463.190535619906	2312.576753326864	-3491.814017339727	584.174049236212	2243.255269077901	-3558.894972897606	640.8701169329379	2314.179161942941	-3601.427950427124	469.9496646870435	2234.750154941141	-3625.730643114688	466.874695258755	2381.27712884179	-3537.924130462114	284.9342036799989	2229.232757360169	-3509.389069070075	391.7999930221699	2258.94488324393	-3633.485569567638	329.1707276001447	2318.681008702909	-3442.006259458137	105.4691888482112	2279.051883217111	-3485.684936532844	114.7177922272074	2375.771095934775	-3603.234382200148	65.25614569646999	2321.030129419406	-3549.652736169427	62.82985454458847	2216.788519988129	-3379.242319562974	70.07443394021223	2360.215075303344	
86	20.59	-3518.90504034853	1220.842694657751	2506.696708669832	-3602.080135826227	1164.116256407398	2672.668366723136	-3605.472720438455	923.0596439426561	2513.444046514063	-3354.059884849298	757.5696146163154	2657.73084426233	-3381.679741849777	739.1710994757799	2371.724676760156	-3178.161403315013	798.5909255524156	2565.74722079893	-3184.823764671362	794.061467395197	2429.99493502028	-3263.591842981756	703.2541729492388	2726.71620192503	-3294.308640910114	704.6103634416654	2287.120583548668	-3475.776613172771	608.5770127060348	2757.505578530919	-3567.207169998523	626.8268061918095	2670.241888958119	-3472.894037740015	452.8534980013932	2689.401296958854	-3623.260784243867	476.7547235116058	2774.090590737463	-3636.353360649258	461.2360326580713	2636.833857598966	-3514.491064679275	406.2128135752304	2759.274098011354	-3638.494377545829	327.2401702737166	2714.892224062167	-3554.38877983252	270.5737192078022	2770.14498784535	-3442.832639702158	106.0968091822866	2740.42887882398	-3484.658559350954	115.09173097574	2646.692203396755	-3587.134341861211	77.0807611516216	2686.936067782196	-3535.929486467366	54.49602687627291	2787.253856003539	-3362.287719074803	71.55797728438856	2671.527682097885	-3461.648062866106	460.9655059155479	2312.218780088937	-3491.507850016728	582.244379501967	2243.115343054822	-3557.965175073564	639.4943140632903	2314.178129476938	-3602.174830605787	469.1879589278643	2234.430261583355	-3626.424758693896	466.1797367840624	2381.0527428752	-3538.52623744222	284.5400542170673	2229.088449473191	-3510.210953715616	391.3583004962017	2258.749443695628	-3634.147865624248	328.6831938774656	2318.563069038894	-3442.072820165905	105.4660497745781	2279.027748802129	-3485.747527861715	114.6713516339152	2375.762828427025	-3603.292587272856	65.23450804901798	2321.006189743653	-3549.656397500683	62.82104825531347	2216.791090107948	-3379.241436434909	70.07751536228173	2360.19866598102	
87	20.595	-3519.785039186681	1215.103966769834	2506.575805153457	-3602.743628228332	1158.428710047823	2672.372905654132	-3605.386101345639	917.0963050433985	2513.479114111469	-3352.926399891543	753.124804716783	2657.553986720816	-3380.704171706665	735.0014143964539	2371.308413421414	-3176.974630534278	793.9039446546589	2565.474603913567	-3183.70581372256	789.4187383662579	2429.770785964739	-3262.222559247201	699.2889296218194	2726.69678622401	-3293.169750345226	700.7703708527	2286.782584596692	-3475.075717894094	606.6100840017025	2757.38899559038	-3566.349968488644	625.5630813158725	2670.044879534341	-3473.650786297711	450.9775253305161	2689.570664825228	-3623.800265888324	476.2617485075414	2774.307560096017	-3637.014992173722	460.6502095417109	2636.964270406037	-3515.066231644476	405.9191073016521	2759.377080335257	-3639.064837428883	326.8236522935442	2715.031757530385	-3554.764553290914	270.3138828546294	2770.193031976532	-3442.925329353464	106.089616266241	2740.357645406282	-3484.759875264107	115.078996109915	2646.67138883938	-3587.173686441046	77.05377823816711	2686.949027678162	-3535.936918474464	54.49249795449082	2787.258570898022	-3362.318657190514	71.59480565123852	2671.472615108605	-3462.378851989803	458.7417963172684	2311.857336578402	-3491.220244785377	580.3145101421657	2242.988697374437	-3557.04400505319	638.0956683714691	2314.208520959048	-3602.925411903051	468.4323298853665	2234.128127830977	-3627.114358497432	465.4822172000645	2380.850578680714	-3539.128951256949	284.1502500966686	2228.956805295883	-3511.026602728989	390.9203302388465	2258.560257146861	-3634.806465556102	328.1984798994016	2318.461777846788	-3442.141527064408	105.4651688330992	2279.005690638305	-3485.814900514821	114.622555956606	2375.756941771454	-3603.35444100999	65.21215441276973	2320.982732801886	-3549.661327074696	62.81324855600074	2216.793954611895	-3379.240756000865	70.07925348785152	2360.183421328072	
